<svg width="16" height="16" viewBox="0 0 16 16" fill="none" xmlns="http://www.w3.org/2000/svg">
<path d="M8.51855 0.0501709V1.95837C8.80054 2.06622 9.0395 2.25971 9.20605 2.50623L13.3672 1.64099L13.4062 1.63318L13.4229 1.66931L15.3008 5.70642H16.0498V6.4281C16.0498 8.04962 14.7309 9.36853 13.1094 9.36853C11.4879 9.36853 10.1689 8.04962 10.1689 6.4281V5.70642H10.918L12.2021 2.94275L9.44141 3.51697C9.3684 4.0502 9.00635 4.49031 8.51855 4.67712V12.5814H9.60547C10.3846 12.5814 11.0186 13.2154 11.0186 13.9945V14.4877H12.0498V15.5248H3.98145V14.4877H5.0127V13.9945C5.0127 13.2154 5.64664 12.5814 6.42578 12.5814H7.48145V4.6781C7.17867 4.56221 6.9248 4.34868 6.75781 4.07556L3.63672 4.724L5.08203 7.83142H5.83105V8.5531C5.83105 10.1746 4.51215 11.4935 2.89062 11.4935C1.2691 11.4935 -0.0498047 10.1746 -0.0498047 8.5531V7.83142H0.699219L2.51953 3.91833L2.53027 3.8949L2.55469 3.89001L6.56934 3.05408C6.66225 2.55062 7.01389 2.13828 7.48145 1.95935V0.0501709H8.51855ZM6.42578 13.6185C6.2188 13.6185 6.0498 13.7875 6.0498 13.9945V14.4877H9.98145V13.9945C9.98145 13.7875 9.81248 13.6185 9.60547 13.6185H6.42578ZM1.01562 8.86853C1.16642 9.7682 1.94884 10.4564 2.89062 10.4564C3.83241 10.4564 4.61483 9.7682 4.76562 8.86853H1.01562ZM11.2344 6.74353C11.3852 7.6432 12.1676 8.33142 13.1094 8.33142C14.0512 8.33142 14.8336 7.6432 14.9844 6.74353H11.2344ZM1.84473 7.83142H3.93652L2.89062 5.57947L1.84473 7.83142ZM12.0635 5.70642H14.1553L13.1094 3.45447L12.0635 5.70642ZM8 2.89978C7.76915 2.89978 7.58105 3.08787 7.58105 3.31873C7.58105 3.54958 7.76915 3.73767 8 3.73767C8.23085 3.73767 8.41895 3.54958 8.41895 3.31873C8.41895 3.08787 8.23085 2.89978 8 2.89978Z" fill="#070216" stroke="#070216" stroke-width="0.1"/>
</svg>
