<svg width="16" height="14" viewBox="0 0 16 14" fill="none" xmlns="http://www.w3.org/2000/svg">
<path d="M13.6609 1.87454C13.3204 1.53387 12.9161 1.26364 12.4711 1.07926C12.0262 0.894886 11.5492 0.799988 11.0676 0.799988C10.5859 0.799988 10.109 0.894886 9.66401 1.07926C9.21903 1.26364 8.81475 1.53387 8.47424 1.87454L7.76758 2.5812L7.06091 1.87454C6.37311 1.18674 5.44026 0.800344 4.46758 0.800344C3.49489 0.800344 2.56204 1.18674 1.87424 1.87454C1.18645 2.56233 0.800049 3.49518 0.800049 4.46787C0.800049 5.44056 1.18645 6.37341 1.87424 7.0612L2.58091 7.76787L7.76758 12.9545L12.9542 7.76787L13.6609 7.0612C14.0016 6.7207 14.2718 6.31641 14.4562 5.87144C14.6406 5.42647 14.7355 4.94953 14.7355 4.46787C14.7355 3.98621 14.6406 3.50927 14.4562 3.0643C14.2718 2.61933 14.0016 2.21504 13.6609 1.87454V1.87454Z" stroke="#070216" stroke-width="1.6" stroke-linecap="round" stroke-linejoin="round"/>
</svg>
